<svg id="Layer_1" data-name="Layer 1" xmlns="http://www.w3.org/2000/svg" viewBox="0 0 80.54 28.8"><defs><style>.cls-1{fill:#231f20;}.cls-2{fill:none;stroke:#231f20;stroke-miterlimit:10;}</style></defs><path class="cls-1" d="M228.79,347.73a4.43,4.43,0,0,0,.37.39,3,3,0,0,0,.48.36,2.91,2.91,0,0,0,.59.25,2.58,2.58,0,0,0,.7.09,1.93,1.93,0,0,0,1.24-.36,1.17,1.17,0,0,0,.44-1,1.09,1.09,0,0,0-.5-1,4.29,4.29,0,0,0-1.45-.53,4.15,4.15,0,0,1-.94-.3,2.66,2.66,0,0,1-.72-.48,2,2,0,0,1-.48-.67,2.13,2.13,0,0,1-.17-.86,2.21,2.21,0,0,1,.17-.84,1.88,1.88,0,0,1,.51-.69,2.44,2.44,0,0,1,.84-.48,3.41,3.41,0,0,1,1.16-.18,3.73,3.73,0,0,1,1,.12,3.34,3.34,0,0,1,.73.31,2.16,2.16,0,0,1,.48.37l.28.31-.77.71-.22-.22a2.09,2.09,0,0,0-.88-.49,2.33,2.33,0,0,0-.68-.09,1.91,1.91,0,0,0-.66.1,1.61,1.61,0,0,0-.45.26,1.07,1.07,0,0,0-.27.37,1.19,1.19,0,0,0-.08.41,1,1,0,0,0,.12.51,1.3,1.3,0,0,0,.37.37,2.49,2.49,0,0,0,.59.28c.24.07.51.15.81.22a5.19,5.19,0,0,1,.87.28,2.74,2.74,0,0,1,.77.47,2,2,0,0,1,.53.72,2.47,2.47,0,0,1,.2,1,2,2,0,0,1-.22.94,2.26,2.26,0,0,1-.59.75,2.62,2.62,0,0,1-.9.5,3.59,3.59,0,0,1-1.11.17,3.68,3.68,0,0,1-1-.13,4,4,0,0,1-.84-.34,3.19,3.19,0,0,1-.66-.45,2.92,2.92,0,0,1-.46-.48Z" transform="translate(-181.86 -326.09)"/><path class="cls-1" d="M235.42,341.67H238a3.45,3.45,0,0,1,1.35.23,2.37,2.37,0,0,1,.86.58,1.9,1.9,0,0,1,.44.78,3.06,3.06,0,0,1,.13.84,2.46,2.46,0,0,1-.21,1,2,2,0,0,1-.56.76,2.47,2.47,0,0,1-.86.47,3.73,3.73,0,0,1-1.09.15h-1.45v3.15h-1.14Zm2.58,3.88a1.63,1.63,0,0,0,1.15-.38,1.36,1.36,0,0,0,.4-1.05,1.41,1.41,0,0,0-.41-1.07,1.61,1.61,0,0,0-1.14-.39h-1.44v2.89Z" transform="translate(-181.86 -326.09)"/><path class="cls-1" d="M243.59,341.67h1.18l3.13,8h-1.28l-.83-2.24H242.5l-.83,2.24h-1.21Zm1.85,4.8L244.15,343l-1.31,3.51Z" transform="translate(-181.86 -326.09)"/><path class="cls-1" d="M255.74,348.27a2.72,2.72,0,0,1-.41.49,3.73,3.73,0,0,1-.67.53,4.48,4.48,0,0,1-.91.41,3.78,3.78,0,0,1-1.14.17,4.18,4.18,0,0,1-1.62-.31,3.74,3.74,0,0,1-1.26-.87,4.1,4.1,0,0,1-.83-1.32,4.76,4.76,0,0,1-.29-1.67,4.68,4.68,0,0,1,.29-1.64,4.09,4.09,0,0,1,.83-1.34,3.7,3.7,0,0,1,1.26-.91,4,4,0,0,1,1.64-.33,3.7,3.7,0,0,1,1.14.16,3.39,3.39,0,0,1,.88.39,3.06,3.06,0,0,1,.65.51,3.81,3.81,0,0,1,.44.52l-.82.7a4,4,0,0,0-.34-.43,2.67,2.67,0,0,0-.47-.4,2.91,2.91,0,0,0-.64-.3,2.64,2.64,0,0,0-.83-.12,2.8,2.8,0,0,0-1.18.25,2.74,2.74,0,0,0-.89.69,3.1,3.1,0,0,0-.56,1,4,4,0,0,0-.19,1.22,3.76,3.76,0,0,0,.2,1.22,3,3,0,0,0,.56,1,2.58,2.58,0,0,0,.87.66,2.74,2.74,0,0,0,1.16.24,2.84,2.84,0,0,0,.93-.14,2.54,2.54,0,0,0,.66-.33,2.89,2.89,0,0,0,.44-.39l.29-.33Z" transform="translate(-181.86 -326.09)"/><path class="cls-1" d="M257.07,341.67h5v1h-3.89V345h2.93v1h-2.93v2.59h4.18v1h-5.33Z" transform="translate(-181.86 -326.09)"/><path class="cls-1" d="M181.86,332.12h1.27l1.54,6.46,1.74-6.22h1.12l1.7,6.2,1.54-6.44H192l-2.15,8h-1.23l-1.66-5.91-1.72,5.91H184Z" transform="translate(-181.86 -326.09)"/><path class="cls-1" d="M196.8,340.33a4,4,0,0,1-1.61-.33,4.13,4.13,0,0,1-2.16-2.24,4.49,4.49,0,0,1,0-3.28,4.18,4.18,0,0,1,.86-1.33,4.09,4.09,0,0,1,1.3-.9,4.12,4.12,0,0,1,3.23,0,4.09,4.09,0,0,1,1.3.9,4,4,0,0,1,.86,1.33,4.49,4.49,0,0,1,0,3.28,4.16,4.16,0,0,1-.86,1.34,4.09,4.09,0,0,1-1.3.9A4,4,0,0,1,196.8,340.33Zm0-1.08A2.93,2.93,0,0,0,198,339a2.82,2.82,0,0,0,.91-.69,3.2,3.2,0,0,0,.58-1,3.76,3.76,0,0,0,0-2.42,3.25,3.25,0,0,0-.58-1,2.77,2.77,0,0,0-2.11-.92,2.72,2.72,0,0,0-2.09.92,3.06,3.06,0,0,0-.58,1,3.59,3.59,0,0,0,0,2.42,3,3,0,0,0,.58,1,2.78,2.78,0,0,0,.9.69A2.88,2.88,0,0,0,196.8,339.25Z" transform="translate(-181.86 -326.09)"/><path class="cls-1" d="M202.39,332.12H205a3.58,3.58,0,0,1,1.3.21,2.48,2.48,0,0,1,.85.54,2,2,0,0,1,.48.75,2.5,2.5,0,0,1,.15.85,2.56,2.56,0,0,1-.36,1.36,2.14,2.14,0,0,1-1.11.87l1.87,3.42h-1.3l-1.71-3.27h-1.61v3.27h-1.12Zm2.66,3.76a1.54,1.54,0,0,0,1.13-.38,1.49,1.49,0,0,0,0-2,1.65,1.65,0,0,0-1.13-.36h-1.51v2.76Z" transform="translate(-181.86 -326.09)"/><path class="cls-1" d="M209.47,332.12h1.14v3.63l3.35-3.63h1.32l-3,3.26,3.33,4.74h-1.38l-2.73-3.92-.92,1v2.94h-1.14Z" transform="translate(-181.86 -326.09)"/><path class="cls-1" d="M216.71,332.12h1.15v8h-1.15Z" transform="translate(-181.86 -326.09)"/><path class="cls-1" d="M219.69,332.12h1.16l4.37,6.25v-6.25h1.13v8h-1.16l-4.38-6.26v6.26h-1.12Z" transform="translate(-181.86 -326.09)"/><path class="cls-1" d="M232.26,336.06h2.81v3.19a4.4,4.4,0,0,1-.52.39,3.17,3.17,0,0,1-.69.34,5,5,0,0,1-.87.25,5.94,5.94,0,0,1-1.08.08,4.3,4.3,0,0,1-1.68-.31,3.71,3.71,0,0,1-2.1-2.2,4.7,4.7,0,0,1-.28-1.66,4.46,4.46,0,0,1,.29-1.64,4.13,4.13,0,0,1,.82-1.34,3.86,3.86,0,0,1,1.27-.9,4,4,0,0,1,1.64-.33,4,4,0,0,1,1.14.15,4,4,0,0,1,.88.38,3.77,3.77,0,0,1,.64.51,4.73,4.73,0,0,1,.44.53l-.81.69c-.1-.13-.21-.27-.35-.42a2.68,2.68,0,0,0-.48-.4,2.63,2.63,0,0,0-.63-.3,2.55,2.55,0,0,0-.81-.12,2.7,2.7,0,0,0-1.19.25,2.74,2.74,0,0,0-.89.68,3.17,3.17,0,0,0-.57,1,3.82,3.82,0,0,0-.19,1.23,3.68,3.68,0,0,0,.21,1.27,3.11,3.11,0,0,0,.61,1,2.75,2.75,0,0,0,.92.65,2.93,2.93,0,0,0,1.16.23,4,4,0,0,0,1.18-.15,2.68,2.68,0,0,0,.84-.44v-1.63h-1.71Z" transform="translate(-181.86 -326.09)"/><line class="cls-2" x1="57.2" y1="0.22" x2="42.95" y2="28.57"/></svg>