<svg width="294" height="277" viewBox="0 0 294 277" fill="none" xmlns="http://www.w3.org/2000/svg">
<g clip-path="url(#clip0)">
<path d="M92.959 270.749C92.959 271.987 92.5899 273.197 91.8985 274.226C91.2071 275.254 90.2245 276.056 89.0753 276.528C87.9261 277 86.6619 277.122 85.4432 276.878C84.2244 276.634 83.1058 276.035 82.2292 275.157C81.3525 274.279 80.7573 273.162 80.519 271.947C80.2807 270.732 80.41 269.474 80.8905 268.333C81.371 267.191 82.1811 266.217 83.2181 265.534C84.2551 264.851 85.4723 264.491 86.7155 264.497C88.3745 264.507 89.9625 265.169 91.1324 266.341C92.3023 267.512 92.959 269.097 92.959 270.749Z" fill="#00CEB5"/>
<path d="M133.16 270.749C133.16 271.985 132.792 273.194 132.102 274.222C131.412 275.25 130.432 276.051 129.285 276.524C128.137 276.998 126.875 277.121 125.657 276.88C124.439 276.639 123.321 276.044 122.443 275.169C121.565 274.295 120.967 273.181 120.724 271.968C120.482 270.756 120.606 269.499 121.082 268.356C121.557 267.214 122.362 266.238 123.394 265.551C124.426 264.864 125.64 264.497 126.882 264.497C128.547 264.497 130.144 265.156 131.321 266.328C132.499 267.501 133.16 269.091 133.16 270.749Z" fill="#00CEB5"/>
<path d="M173.431 270.749C173.431 271.985 173.063 273.194 172.373 274.222C171.683 275.25 170.702 276.051 169.555 276.524C168.408 276.998 167.146 277.121 165.928 276.88C164.71 276.639 163.591 276.044 162.713 275.169C161.835 274.295 161.237 273.181 160.995 271.968C160.753 270.756 160.877 269.499 161.352 268.356C161.828 267.214 162.632 266.238 163.665 265.551C164.697 264.864 165.911 264.497 167.153 264.497C167.977 264.497 168.794 264.659 169.555 264.973C170.317 265.287 171.009 265.748 171.592 266.328C172.175 266.909 172.637 267.598 172.953 268.356C173.269 269.115 173.431 269.928 173.431 270.749Z" fill="#00CEB5"/>
<path d="M213.597 270.749C213.604 271.993 213.24 273.212 212.55 274.25C211.861 275.289 210.877 276.1 209.725 276.581C208.572 277.062 207.301 277.191 206.074 276.953C204.848 276.714 203.719 276.118 202.833 275.24C201.947 274.363 201.342 273.243 201.096 272.022C200.849 270.802 200.972 269.536 201.449 268.386C201.926 267.235 202.735 266.251 203.774 265.559C204.813 264.867 206.035 264.497 207.285 264.497C208.953 264.497 210.553 265.155 211.736 266.326C212.919 267.498 213.588 269.088 213.597 270.749Z" fill="#00CEB5"/>
<path d="M52.7577 232.964C52.7577 234.2 52.3895 235.409 51.6996 236.437C51.0098 237.465 50.0292 238.266 48.8821 238.739C47.7349 239.212 46.4725 239.336 45.2547 239.095C44.0368 238.854 42.9182 238.258 42.0401 237.384C41.1621 236.51 40.5642 235.396 40.3219 234.183C40.0797 232.971 40.204 231.714 40.6792 230.571C41.1544 229.429 41.9591 228.453 42.9915 227.766C44.024 227.079 45.2378 226.712 46.4795 226.712C47.304 226.712 48.1204 226.874 48.8821 227.188C49.6438 227.502 50.3359 227.963 50.9189 228.543C51.5018 229.124 51.9643 229.813 52.2798 230.571C52.5953 231.33 52.7577 232.143 52.7577 232.964Z" fill="#00CEB5"/>
<path d="M92.959 232.964C92.959 234.202 92.5899 235.412 91.8985 236.44C91.2071 237.469 90.2245 238.27 89.0753 238.743C87.9261 239.215 86.6619 239.337 85.4432 239.093C84.2244 238.848 83.1058 238.25 82.2292 237.372C81.3525 236.494 80.7573 235.377 80.519 234.162C80.2807 232.947 80.41 231.689 80.8905 230.547C81.371 229.406 82.1811 228.432 83.2181 227.749C84.2551 227.066 85.4723 226.705 86.7155 226.712C88.3745 226.721 89.9625 227.384 91.1324 228.555C92.3023 229.727 92.959 231.312 92.959 232.964Z" fill="#00CEB5"/>
<path d="M133.16 232.964C133.16 234.2 132.792 235.409 132.102 236.437C131.412 237.465 130.432 238.266 129.285 238.739C128.137 239.212 126.875 239.336 125.657 239.095C124.439 238.854 123.321 238.258 122.443 237.384C121.565 236.51 120.967 235.396 120.724 234.183C120.482 232.971 120.606 231.714 121.082 230.571C121.557 229.429 122.362 228.453 123.394 227.766C124.426 227.079 125.64 226.712 126.882 226.712C128.547 226.712 130.144 227.371 131.321 228.543C132.499 229.716 133.16 231.306 133.16 232.964Z" fill="#00CEB5"/>
<path d="M173.431 232.964C173.431 234.2 173.063 235.409 172.373 236.437C171.683 237.465 170.702 238.266 169.555 238.739C168.408 239.212 167.146 239.336 165.928 239.095C164.71 238.854 163.591 238.258 162.713 237.384C161.835 236.51 161.237 235.396 160.995 234.183C160.753 232.971 160.877 231.714 161.352 230.571C161.828 229.429 162.632 228.453 163.665 227.766C164.697 227.079 165.911 226.712 167.153 226.712C167.977 226.712 168.794 226.874 169.555 227.188C170.317 227.502 171.009 227.963 171.592 228.543C172.175 229.124 172.637 229.813 172.953 230.571C173.269 231.33 173.431 232.143 173.431 232.964Z" fill="#00CEB5"/>
<path d="M213.597 232.964C213.604 234.208 213.24 235.427 212.55 236.465C211.861 237.504 210.877 238.315 209.725 238.796C208.572 239.277 207.301 239.406 206.074 239.168C204.848 238.929 203.719 238.333 202.833 237.455C201.947 236.578 201.342 235.458 201.096 234.237C200.849 233.017 200.972 231.751 201.449 230.601C201.926 229.45 202.735 228.466 203.774 227.774C204.813 227.082 206.035 226.712 207.285 226.712C208.953 226.712 210.553 227.37 211.736 228.541C212.919 229.712 213.588 231.302 213.597 232.964Z" fill="#00CEB5"/>
<path d="M253.799 232.964C253.806 234.21 253.44 235.43 252.749 236.469C252.058 237.508 251.073 238.319 249.918 238.799C248.763 239.279 247.491 239.407 246.263 239.165C245.035 238.924 243.907 238.324 243.022 237.443C242.137 236.562 241.535 235.439 241.293 234.216C241.05 232.994 241.178 231.727 241.66 230.577C242.142 229.427 242.957 228.445 244 227.757C245.044 227.069 246.269 226.705 247.521 226.712C249.186 226.712 250.783 227.371 251.96 228.543C253.137 229.716 253.799 231.306 253.799 232.964Z" fill="#00CEB5"/>
<path d="M52.7577 195.178C52.7577 196.415 52.3895 197.624 51.6996 198.652C51.0098 199.68 50.0292 200.481 48.8821 200.954C47.7349 201.427 46.4725 201.551 45.2547 201.31C44.0368 201.069 42.9182 200.473 42.0401 199.599C41.1621 198.725 40.5642 197.611 40.3219 196.398C40.0797 195.185 40.204 193.928 40.6792 192.786C41.1544 191.644 41.9591 190.667 42.9915 189.981C44.024 189.294 45.2378 188.927 46.4795 188.927C47.304 188.927 48.1204 189.089 48.8821 189.403C49.6438 189.717 50.3359 190.178 50.9189 190.758C51.5018 191.339 51.9643 192.028 52.2798 192.786C52.5953 193.545 52.7577 194.358 52.7577 195.178Z" fill="#00CEB5"/>
<path d="M92.959 195.179C92.959 196.416 92.5899 197.626 91.8985 198.655C91.2071 199.684 90.2245 200.485 89.0753 200.957C87.9261 201.43 86.6619 201.551 85.4432 201.307C84.2244 201.063 83.1058 200.464 82.2292 199.587C81.3525 198.709 80.7573 197.592 80.519 196.377C80.2807 195.162 80.41 193.904 80.8905 192.762C81.371 191.621 82.1811 190.647 83.2181 189.964C84.2551 189.281 85.4723 188.92 86.7155 188.927C88.3745 188.936 89.9625 189.599 91.1324 190.77C92.3023 191.942 92.959 193.527 92.959 195.179Z" fill="#00CEB5"/>
<path d="M133.16 195.178C133.16 196.415 132.792 197.624 132.102 198.652C131.412 199.68 130.432 200.481 129.285 200.954C128.137 201.427 126.875 201.551 125.657 201.31C124.439 201.069 123.321 200.473 122.443 199.599C121.565 198.725 120.967 197.611 120.724 196.398C120.482 195.185 120.606 193.928 121.082 192.786C121.557 191.644 122.362 190.667 123.394 189.981C124.426 189.294 125.64 188.927 126.882 188.927C127.706 188.927 128.523 189.089 129.285 189.403C130.046 189.717 130.738 190.178 131.321 190.758C131.904 191.339 132.367 192.028 132.682 192.786C132.998 193.545 133.16 194.358 133.16 195.178Z" fill="#00CEB5"/>
<path d="M173.431 195.178C173.431 196.415 173.063 197.624 172.373 198.652C171.683 199.68 170.702 200.481 169.555 200.954C168.408 201.427 167.146 201.551 165.928 201.31C164.71 201.069 163.591 200.473 162.713 199.599C161.835 198.725 161.237 197.611 160.995 196.398C160.753 195.185 160.877 193.928 161.352 192.786C161.828 191.644 162.632 190.667 163.665 189.981C164.697 189.294 165.911 188.927 167.153 188.927C167.977 188.927 168.794 189.089 169.555 189.403C170.317 189.717 171.009 190.178 171.592 190.758C172.175 191.339 172.637 192.028 172.953 192.786C173.269 193.545 173.431 194.358 173.431 195.178Z" fill="#00CEB5"/>
<path d="M213.597 195.178C213.604 196.423 213.24 197.642 212.55 198.68C211.861 199.718 210.877 200.53 209.725 201.011C208.572 201.492 207.301 201.621 206.074 201.382C204.848 201.144 203.719 200.548 202.833 199.67C201.947 198.792 201.342 197.672 201.096 196.452C200.849 195.232 200.972 193.966 201.449 192.816C201.926 191.665 202.735 190.681 203.774 189.989C204.813 189.297 206.035 188.927 207.285 188.927C208.953 188.927 210.553 189.585 211.736 190.756C212.919 191.927 213.588 193.517 213.597 195.178Z" fill="#00CEB5"/>
<path d="M253.799 195.179C253.806 196.425 253.44 197.645 252.749 198.684C252.058 199.723 251.073 200.534 249.918 201.014C248.763 201.494 247.491 201.621 246.263 201.38C245.035 201.138 243.907 200.539 243.022 199.658C242.137 198.777 241.535 197.653 241.293 196.431C241.05 195.208 241.178 193.942 241.66 192.792C242.142 191.642 242.957 190.66 244 189.972C245.044 189.284 246.269 188.92 247.521 188.927C248.345 188.927 249.161 189.089 249.923 189.403C250.685 189.717 251.377 190.178 251.96 190.758C252.543 191.339 253.005 192.028 253.321 192.786C253.636 193.545 253.799 194.358 253.799 195.179Z" fill="#00CEB5"/>
<path d="M12.5564 157.393C12.5564 158.629 12.1882 159.838 11.4983 160.866C10.8085 161.894 9.82795 162.695 8.68076 163.168C7.53357 163.642 6.27124 163.765 5.05338 163.524C3.83553 163.283 2.71687 162.688 1.83884 161.813C0.960823 160.939 0.362882 159.825 0.120637 158.612C-0.121609 157.4 0.00272026 156.143 0.477902 155.001C0.953084 153.858 1.75778 152.882 2.79022 152.195C3.82266 151.508 5.03649 151.141 6.2782 151.141C7.94328 151.141 9.54016 151.8 10.7176 152.972C11.8949 154.145 12.5564 155.735 12.5564 157.393Z" fill="#00CEB5"/>
<path d="M52.7577 157.393C52.7577 158.629 52.3895 159.838 51.6996 160.866C51.0098 161.894 50.0292 162.695 48.8821 163.168C47.7349 163.642 46.4725 163.765 45.2547 163.524C44.0368 163.283 42.9182 162.688 42.0401 161.813C41.1621 160.939 40.5642 159.825 40.3219 158.612C40.0797 157.4 40.204 156.143 40.6792 155.001C41.1544 153.858 41.9591 152.882 42.9915 152.195C44.024 151.508 45.2378 151.141 46.4795 151.141C47.304 151.141 48.1204 151.303 48.8821 151.617C49.6438 151.931 50.3359 152.392 50.9189 152.972C51.5018 153.553 51.9643 154.242 52.2798 155.001C52.5953 155.759 52.7577 156.572 52.7577 157.393Z" fill="#00CEB5"/>
<path d="M92.959 157.393C92.959 158.631 92.5899 159.841 91.8985 160.87C91.2071 161.898 90.2245 162.7 89.0753 163.172C87.9261 163.644 86.6619 163.766 85.4432 163.522C84.2244 163.278 83.1058 162.679 82.2292 161.801C81.3525 160.923 80.7573 159.806 80.519 158.591C80.2807 157.376 80.41 156.118 80.8905 154.977C81.371 153.835 82.1811 152.861 83.2181 152.178C84.2551 151.495 85.4723 151.135 86.7155 151.141C88.3745 151.151 89.9625 151.813 91.1324 152.985C92.3023 154.156 92.959 155.741 92.959 157.393Z" fill="#00CEB5"/>
<path d="M133.16 157.393C133.16 158.629 132.792 159.838 132.102 160.866C131.412 161.894 130.432 162.695 129.285 163.168C128.137 163.642 126.875 163.765 125.657 163.524C124.439 163.283 123.321 162.688 122.443 161.813C121.565 160.939 120.967 159.825 120.724 158.612C120.482 157.4 120.606 156.143 121.082 155.001C121.557 153.858 122.362 152.882 123.394 152.195C124.426 151.508 125.64 151.141 126.882 151.141C128.547 151.141 130.144 151.8 131.321 152.972C132.499 154.145 133.16 155.735 133.16 157.393Z" fill="#00CEB5"/>
<path d="M173.431 157.393C173.431 158.629 173.063 159.838 172.373 160.866C171.683 161.894 170.702 162.695 169.555 163.168C168.408 163.642 167.146 163.765 165.928 163.524C164.71 163.283 163.591 162.688 162.713 161.813C161.835 160.939 161.237 159.825 160.995 158.612C160.753 157.4 160.877 156.143 161.352 155.001C161.828 153.858 162.632 152.882 163.665 152.195C164.697 151.508 165.911 151.141 167.153 151.141C167.977 151.141 168.794 151.303 169.555 151.617C170.317 151.931 171.009 152.392 171.592 152.972C172.175 153.553 172.637 154.242 172.953 155.001C173.269 155.759 173.431 156.572 173.431 157.393Z" fill="#00CEB5"/>
<path d="M213.597 157.393C213.604 158.638 213.24 159.856 212.55 160.895C211.861 161.933 210.877 162.744 209.725 163.225C208.572 163.706 207.301 163.835 206.074 163.597C204.848 163.358 203.719 162.762 202.833 161.885C201.947 161.007 201.342 159.887 201.096 158.666C200.849 157.446 200.972 156.181 201.449 155.03C201.926 153.879 202.735 152.895 203.774 152.203C204.813 151.511 206.035 151.141 207.285 151.141C208.953 151.141 210.553 151.799 211.736 152.97C212.919 154.142 213.588 155.732 213.597 157.393Z" fill="#00CEB5"/>
<path d="M253.799 157.393C253.806 158.639 253.44 159.859 252.749 160.898C252.058 161.937 251.073 162.748 249.918 163.228C248.763 163.708 247.491 163.836 246.263 163.594C245.035 163.353 243.907 162.753 243.022 161.872C242.137 160.991 241.535 159.868 241.293 158.645C241.05 157.423 241.178 156.156 241.66 155.006C242.142 153.856 242.957 152.875 244 152.186C245.044 151.498 246.269 151.135 247.521 151.141C249.186 151.141 250.783 151.8 251.96 152.972C253.137 154.145 253.799 155.735 253.799 157.393Z" fill="#00CEB5"/>
<path d="M294 157.393C294 158.637 293.627 159.852 292.929 160.884C292.231 161.915 291.24 162.716 290.083 163.184C288.925 163.651 287.654 163.765 286.432 163.509C285.209 163.253 284.091 162.641 283.221 161.749C282.35 160.857 281.766 159.727 281.544 158.504C281.322 157.28 281.471 156.018 281.973 154.879C282.475 153.74 283.306 152.776 284.361 152.11C285.416 151.445 286.647 151.107 287.895 151.142C289.53 151.187 291.083 151.865 292.223 153.033C293.363 154.2 294.001 155.765 294 157.393Z" fill="#00CEB5"/>
<path d="M12.5564 119.608C12.5564 120.844 12.1882 122.053 11.4983 123.081C10.8085 124.109 9.82795 124.91 8.68076 125.383C7.53357 125.857 6.27124 125.98 5.05338 125.739C3.83553 125.498 2.71687 124.902 1.83884 124.028C0.960823 123.154 0.362882 122.04 0.120637 120.827C-0.121609 119.615 0.00272026 118.358 0.477902 117.215C0.953084 116.073 1.75778 115.097 2.79022 114.41C3.82266 113.723 5.03649 113.356 6.2782 113.356C7.10266 113.356 7.91906 113.518 8.68076 113.832C9.44247 114.146 10.1346 114.607 10.7176 115.187C11.3005 115.768 11.763 116.457 12.0785 117.215C12.394 117.974 12.5564 118.787 12.5564 119.608Z" fill="#00CEB5"/>
<path d="M52.7577 119.608C52.7577 120.844 52.3895 122.053 51.6996 123.081C51.0098 124.109 50.0292 124.91 48.8821 125.383C47.7349 125.857 46.4725 125.98 45.2547 125.739C44.0368 125.498 42.9182 124.902 42.0401 124.028C41.1621 123.154 40.5642 122.04 40.3219 120.827C40.0797 119.615 40.204 118.358 40.6792 117.215C41.1544 116.073 41.9591 115.097 42.9915 114.41C44.024 113.723 45.2378 113.356 46.4795 113.356C47.304 113.356 48.1204 113.518 48.8821 113.832C49.6438 114.146 50.3359 114.607 50.9189 115.187C51.5018 115.768 51.9643 116.457 52.2798 117.215C52.5953 117.974 52.7577 118.787 52.7577 119.608Z" fill="#00CEB5"/>
<path d="M92.959 119.608C92.959 120.846 92.5899 122.056 91.8985 123.085C91.2071 124.113 90.2245 124.915 89.0753 125.387C87.9261 125.859 86.6619 125.981 85.4432 125.737C84.2244 125.493 83.1058 124.894 82.2292 124.016C81.3525 123.138 80.7573 122.021 80.519 120.806C80.2807 119.591 80.41 118.333 80.8905 117.191C81.371 116.05 82.1811 115.076 83.2181 114.393C84.2551 113.71 85.4723 113.349 86.7155 113.356C88.3745 113.365 89.9625 114.028 91.1324 115.199C92.3023 116.371 92.959 117.956 92.959 119.608Z" fill="#00CEB5"/>
<path d="M133.16 119.608C133.16 120.844 132.792 122.053 132.102 123.081C131.412 124.109 130.432 124.91 129.285 125.383C128.137 125.857 126.875 125.98 125.657 125.739C124.439 125.498 123.321 124.902 122.443 124.028C121.565 123.154 120.967 122.04 120.724 120.827C120.482 119.615 120.606 118.358 121.082 117.215C121.557 116.073 122.362 115.097 123.394 114.41C124.426 113.723 125.64 113.356 126.882 113.356C127.706 113.356 128.523 113.518 129.285 113.832C130.046 114.146 130.738 114.607 131.321 115.187C131.904 115.768 132.367 116.457 132.682 117.215C132.998 117.974 133.16 118.787 133.16 119.608Z" fill="#00CEB5"/>
<path d="M173.431 119.608C173.431 120.844 173.063 122.053 172.373 123.081C171.683 124.109 170.702 124.91 169.555 125.383C168.408 125.857 167.146 125.98 165.928 125.739C164.71 125.498 163.591 124.902 162.713 124.028C161.835 123.154 161.237 122.04 160.995 120.827C160.753 119.615 160.877 118.358 161.352 117.215C161.828 116.073 162.632 115.097 163.665 114.41C164.697 113.723 165.911 113.356 167.153 113.356C167.977 113.356 168.794 113.518 169.555 113.832C170.317 114.146 171.009 114.607 171.592 115.187C172.175 115.768 172.637 116.457 172.953 117.215C173.269 117.974 173.431 118.787 173.431 119.608Z" fill="#00CEB5"/>
<path d="M213.597 119.608C213.604 120.852 213.24 122.071 212.55 123.109C211.861 124.148 210.877 124.959 209.725 125.44C208.572 125.921 207.301 126.05 206.074 125.812C204.848 125.573 203.719 124.977 202.833 124.099C201.947 123.222 201.342 122.102 201.096 120.881C200.849 119.661 200.972 118.395 201.449 117.245C201.926 116.094 202.735 115.11 203.774 114.418C204.813 113.726 206.035 113.356 207.285 113.356C208.953 113.356 210.553 114.014 211.736 115.185C212.919 116.357 213.588 117.947 213.597 119.608Z" fill="#00CEB5"/>
<path d="M253.799 119.608C253.806 120.854 253.44 122.074 252.749 123.113C252.058 124.152 251.073 124.963 249.918 125.443C248.763 125.923 247.491 126.051 246.263 125.809C245.035 125.568 243.907 124.968 243.022 124.087C242.137 123.206 241.535 122.083 241.293 120.86C241.05 119.638 241.178 118.371 241.66 117.221C242.142 116.071 242.957 115.089 244 114.401C245.044 113.713 246.269 113.349 247.521 113.356C248.345 113.356 249.161 113.518 249.923 113.832C250.685 114.146 251.377 114.607 251.96 115.187C252.543 115.768 253.005 116.457 253.321 117.215C253.636 117.974 253.799 118.787 253.799 119.608Z" fill="#00CEB5"/>
<path d="M294 119.608C294 120.851 293.627 122.067 292.929 123.098C292.231 124.13 291.24 124.93 290.083 125.398C288.925 125.866 287.654 125.979 286.432 125.723C285.209 125.468 284.091 124.855 283.221 123.963C282.35 123.072 281.766 121.942 281.544 120.718C281.322 119.494 281.471 118.232 281.973 117.093C282.475 115.954 283.306 114.99 284.361 114.325C285.416 113.659 286.647 113.322 287.895 113.356C289.53 113.401 291.083 114.08 292.223 115.247C293.363 116.415 294.001 117.979 294 119.608Z" fill="#00CEB5"/>
<path d="M52.7577 81.8225C52.7577 83.059 52.3895 84.2676 51.6996 85.2957C51.0098 86.3237 50.0292 87.125 48.8821 87.5982C47.7349 88.0713 46.4725 88.1951 45.2547 87.9539C44.0368 87.7127 42.9182 87.1173 42.0401 86.243C41.1621 85.3687 40.5642 84.2548 40.3219 83.0421C40.0797 81.8295 40.204 80.5725 40.6792 79.4302C41.1544 78.2879 41.9591 77.3115 42.9915 76.6246C44.024 75.9377 45.2378 75.571 46.4795 75.571C47.304 75.571 48.1204 75.7327 48.8821 76.0469C49.6438 76.3611 50.3359 76.8216 50.9189 77.4021C51.5018 77.9826 51.9643 78.6717 52.2798 79.4302C52.5953 80.1887 52.7577 81.0016 52.7577 81.8225Z" fill="#00CEB5"/>
<path d="M92.959 81.8226C92.959 83.0605 92.5899 84.2706 91.8985 85.2993C91.2071 86.3281 90.2245 87.1294 89.0753 87.6015C87.9261 88.0736 86.6619 88.1954 85.4432 87.9514C84.2244 87.7073 83.1058 87.1085 82.2292 86.2308C81.3525 85.353 80.7573 84.2359 80.519 83.0209C80.2807 81.806 80.41 80.548 80.8905 79.4063C81.371 78.2646 82.1811 77.2906 83.2181 76.6079C84.2551 75.9251 85.4723 75.5643 86.7155 75.5711C88.3745 75.5803 89.9625 76.2429 91.1324 77.4143C92.3023 78.5857 92.959 80.1706 92.959 81.8226Z" fill="#00CEB5"/>
<path d="M133.16 81.8225C133.16 83.059 132.792 84.2676 132.102 85.2957C131.412 86.3237 130.432 87.125 129.285 87.5982C128.137 88.0713 126.875 88.1951 125.657 87.9539C124.439 87.7127 123.321 87.1173 122.443 86.243C121.565 85.3687 120.967 84.2548 120.724 83.0421C120.482 81.8295 120.606 80.5725 121.082 79.4302C121.557 78.2879 122.362 77.3115 123.394 76.6246C124.426 75.9377 125.64 75.571 126.882 75.571C128.547 75.571 130.144 76.2297 131.321 77.4021C132.499 78.5745 133.16 80.1645 133.16 81.8225Z" fill="#00CEB5"/>
<path d="M173.431 81.8225C173.431 83.059 173.063 84.2676 172.373 85.2957C171.683 86.3237 170.702 87.125 169.555 87.5982C168.408 88.0713 167.146 88.1951 165.928 87.9539C164.71 87.7127 163.591 87.1173 162.713 86.243C161.835 85.3687 161.237 84.2548 160.995 83.0421C160.753 81.8295 160.877 80.5725 161.352 79.4302C161.828 78.2879 162.632 77.3115 163.665 76.6246C164.697 75.9377 165.911 75.571 167.153 75.571C167.977 75.571 168.794 75.7327 169.555 76.0469C170.317 76.3611 171.009 76.8216 171.592 77.4021C172.175 77.9826 172.637 78.6717 172.953 79.4302C173.269 80.1887 173.431 81.0016 173.431 81.8225Z" fill="#00CEB5"/>
<path d="M213.597 81.8225C213.604 83.0672 213.24 84.286 212.55 85.3242C211.861 86.3625 210.877 87.1736 209.725 87.6546C208.572 88.1357 207.301 88.2651 206.074 88.0265C204.848 87.7879 203.719 87.1919 202.833 86.3142C201.947 85.4365 201.342 84.3165 201.096 83.0962C200.849 81.8759 200.972 80.6102 201.449 79.4596C201.926 78.3089 202.735 77.3251 203.774 76.6329C204.813 75.9406 206.035 75.5711 207.285 75.571C208.953 75.571 210.553 76.2286 211.736 77.4C212.919 78.5714 213.588 80.1614 213.597 81.8225Z" fill="#00CEB5"/>
<path d="M253.799 81.8226C253.806 83.0688 253.44 84.2889 252.749 85.3279C252.058 86.3669 251.073 87.178 249.918 87.658C248.763 88.1381 247.491 88.2655 246.263 88.024C245.035 87.7826 243.907 87.1832 243.022 86.302C242.137 85.4208 241.535 84.2976 241.293 83.075C241.05 81.8524 241.178 80.5856 241.66 79.4356C242.142 78.2856 242.957 77.3042 244 76.6161C245.044 75.928 246.269 75.5643 247.521 75.5711C249.186 75.5711 250.783 76.2298 251.96 77.4022C253.137 78.5745 253.799 80.1646 253.799 81.8226Z" fill="#00CEB5"/>
<path d="M52.7577 44.0374C52.7577 45.2738 52.3895 46.4825 51.6996 47.5105C51.0098 48.5386 50.0292 49.3399 48.8821 49.813C47.7349 50.2862 46.4725 50.41 45.2547 50.1688C44.0368 49.9275 42.9182 49.3321 42.0401 48.4579C41.1621 47.5836 40.5642 46.4697 40.3219 45.257C40.0797 44.0443 40.204 42.7874 40.6792 41.645C41.1544 40.5027 41.9591 39.5264 42.9915 38.8395C44.024 38.1525 45.2378 37.7859 46.4795 37.7859C47.304 37.7859 48.1204 37.9476 48.8821 38.2618C49.6438 38.5759 50.3359 39.0364 50.9189 39.6169C51.5018 40.1974 51.9643 40.8866 52.2798 41.645C52.5953 42.4035 52.7577 43.2164 52.7577 44.0374Z" fill="#00CEB5"/>
<path d="M92.959 44.0375C92.959 45.2754 92.5899 46.4854 91.8985 47.5142C91.2071 48.543 90.2245 49.3442 89.0753 49.8163C87.9261 50.2885 86.6619 50.4102 85.4432 50.1662C84.2244 49.9222 83.1058 49.3233 82.2292 48.4456C81.3525 47.5679 80.7573 46.4507 80.519 45.2358C80.2807 44.0208 80.41 42.7628 80.8905 41.6211C81.371 40.4794 82.1811 39.5055 83.2181 38.8227C84.2551 38.14 85.4723 37.7791 86.7155 37.786C88.3745 37.7951 89.9625 38.4578 91.1324 39.6292C92.3023 40.8006 92.959 42.3855 92.959 44.0375Z" fill="#00CEB5"/>
<path d="M133.16 44.0374C133.16 45.2738 132.792 46.4825 132.102 47.5105C131.412 48.5386 130.432 49.3399 129.285 49.813C128.137 50.2862 126.875 50.41 125.657 50.1688C124.439 49.9275 123.321 49.3321 122.443 48.4579C121.565 47.5836 120.967 46.4697 120.724 45.257C120.482 44.0443 120.606 42.7874 121.082 41.645C121.557 40.5027 122.362 39.5264 123.394 38.8395C124.426 38.1525 125.64 37.7859 126.882 37.7859C128.547 37.7859 130.144 38.4445 131.321 39.6169C132.499 40.7893 133.16 42.3794 133.16 44.0374Z" fill="#00CEB5"/>
<path d="M173.431 44.0374C173.431 45.2738 173.063 46.4825 172.373 47.5105C171.683 48.5386 170.702 49.3399 169.555 49.813C168.408 50.2862 167.146 50.41 165.928 50.1688C164.71 49.9275 163.591 49.3321 162.713 48.4579C161.835 47.5836 161.237 46.4697 160.995 45.257C160.753 44.0443 160.877 42.7874 161.352 41.645C161.828 40.5027 162.632 39.5264 163.665 38.8395C164.697 38.1525 165.911 37.7859 167.153 37.7859C167.977 37.7859 168.794 37.9476 169.555 38.2618C170.317 38.5759 171.009 39.0364 171.592 39.6169C172.175 40.1974 172.637 40.8866 172.953 41.645C173.269 42.4035 173.431 43.2164 173.431 44.0374Z" fill="#00CEB5"/>
<path d="M213.597 44.0374C213.604 45.2821 213.24 46.5008 212.55 47.5391C211.861 48.5773 210.877 49.3884 209.725 49.8695C208.572 50.3506 207.301 50.48 206.074 50.2414C204.848 50.0027 203.719 49.4068 202.833 48.529C201.947 47.6513 201.342 46.5313 201.096 45.311C200.849 44.0907 200.972 42.825 201.449 41.6744C201.926 40.5238 202.735 39.54 203.774 38.8477C204.813 38.1555 206.035 37.7859 207.285 37.7859C208.953 37.7859 210.553 38.4434 211.736 39.6148C212.919 40.7862 213.588 42.3762 213.597 44.0374Z" fill="#00CEB5"/>
<path d="M253.799 44.0375C253.806 45.2837 253.44 46.5037 252.749 47.5428C252.058 48.5818 251.073 49.3928 249.918 49.8729C248.763 50.3529 247.491 50.4803 246.263 50.2389C245.035 49.9974 243.907 49.398 243.022 48.5168C242.137 47.6356 241.535 46.5124 241.293 45.2898C241.05 44.0672 241.178 42.8005 241.66 41.6505C242.142 40.5004 242.957 39.5191 244 38.831C245.044 38.1429 246.269 37.7792 247.521 37.786C249.186 37.786 250.783 38.4446 251.96 39.617C253.137 40.7894 253.799 42.3795 253.799 44.0375Z" fill="#00CEB5"/>
<path d="M92.959 6.25159C92.959 7.48949 92.5899 8.69951 91.8985 9.7283C91.2071 10.7571 90.2245 11.5583 89.0753 12.0305C87.9261 12.5026 86.6619 12.6243 85.4432 12.3803C84.2244 12.1363 83.1058 11.5375 82.2292 10.6597C81.3525 9.78196 80.7573 8.66483 80.519 7.44989C80.2807 6.23495 80.41 4.97691 80.8905 3.83522C81.371 2.69353 82.1811 1.71958 83.2181 1.03683C84.2551 0.354079 85.4723 -0.00674375 86.7155 9.54534e-05C88.3745 0.00922271 89.9625 0.671888 91.1324 1.84328C92.3023 3.01468 92.959 4.59956 92.959 6.25159Z" fill="#00CEB5"/>
<path d="M133.16 6.2515C133.16 7.48793 132.792 8.69659 132.102 9.72464C131.412 10.7527 130.432 11.554 129.285 12.0271C128.137 12.5003 126.875 12.6241 125.657 12.3829C124.439 12.1417 123.321 11.5463 122.443 10.672C121.565 9.79768 120.967 8.68377 120.724 7.4711C120.482 6.25843 120.606 5.00146 121.082 3.85915C121.557 2.71684 122.362 1.74049 123.394 1.05357C124.426 0.366644 125.64 0 126.882 0C128.547 0 130.144 0.658638 131.321 1.83102C132.499 3.0034 133.16 4.5935 133.16 6.2515Z" fill="#00CEB5"/>
<path d="M173.431 6.25188C173.431 7.48535 173.064 8.69123 172.377 9.71774C171.691 10.7442 170.714 11.5455 169.571 12.0206C168.428 12.4957 167.169 12.6235 165.953 12.3878C164.737 12.1522 163.619 11.5636 162.738 10.6962C161.857 9.8288 161.254 8.72136 161.004 7.51328C160.754 6.30519 160.868 5.05046 161.333 3.90701C161.797 2.76357 162.591 1.78252 163.614 1.08736C164.638 0.392207 165.845 0.0140112 167.083 0.000381685C167.914 -0.00875426 168.737 0.1462 169.507 0.456275C170.277 0.766349 170.977 1.22538 171.568 1.8068C172.158 2.38822 172.627 3.08047 172.946 3.84347C173.266 4.60647 173.431 5.42508 173.431 6.25188Z" fill="#00CEB5"/>
<path d="M213.597 6.2515C213.604 7.4962 213.24 8.71492 212.55 9.75319C211.861 10.7915 210.877 11.6025 209.725 12.0836C208.572 12.5647 207.301 12.6941 206.074 12.4555C204.848 12.2168 203.719 11.6209 202.833 10.7432C201.947 9.86543 201.342 8.74544 201.096 7.52514C200.849 6.30483 200.972 5.03916 201.449 3.88852C201.926 2.73788 202.735 1.75409 203.774 1.06183C204.813 0.369576 206.035 1.87898e-05 207.285 7.17181e-10C208.953 -2.50748e-05 210.553 0.657508 211.736 1.82891C212.919 3.00031 213.588 4.59033 213.597 6.2515Z" fill="#00CEB5"/>
</g>
<defs>
<clipPath id="clip0">
<rect width="294" height="277" fill="white"/>
</clipPath>
</defs>
</svg>
