<svg width="17" height="17" viewBox="0 0 17 17" fill="none" xmlns="http://www.w3.org/2000/svg">
<path d="M6.76714 7.84844C6.90308 7.75 6.9687 7.5875 6.9687 7.36406C6.97339 7.25781 6.95151 7.15313 6.90464 7.05781C6.86245 6.98125 6.79995 6.91719 6.72339 6.87187C6.644 6.82373 6.55583 6.79186 6.46401 6.77812C6.36401 6.75937 6.26245 6.75 6.16245 6.75156H5.06401V7.99687H6.25308C6.45776 7.99844 6.6312 7.94844 6.76714 7.84844V7.84844ZM6.95151 8.97344C6.79839 8.85625 6.5937 8.79844 6.33901 8.79844H5.06089V10.2672H6.31401C6.4312 10.2672 6.53901 10.2562 6.6437 10.2344C6.74275 10.215 6.83717 10.1768 6.92183 10.1219C7.00151 10.0703 7.06558 10 7.11401 9.90938C7.16089 9.81875 7.18433 9.70312 7.18433 9.56406C7.18433 9.2875 7.1062 9.09219 6.95151 8.97344V8.97344ZM8.19995 1.5C4.33433 1.5 1.19995 4.63438 1.19995 8.5C1.19995 12.3656 4.33433 15.5 8.19995 15.5C12.0656 15.5 15.2 12.3656 15.2 8.5C15.2 4.63438 12.0656 1.5 8.19995 1.5ZM9.55151 5.98281H11.714V6.50938H9.55151V5.98281ZM8.19995 10.325C8.0988 10.517 7.95437 10.6828 7.77808 10.8094C7.5937 10.9375 7.38901 11.0312 7.17183 11.0859C6.9446 11.1468 6.71019 11.1768 6.47495 11.175H3.88745V5.84531H6.40308C6.65776 5.84531 6.88901 5.86875 7.09995 5.9125C7.30933 5.95625 7.48745 6.03125 7.63745 6.13281C7.78589 6.23438 7.90308 6.37031 7.98589 6.53906C8.06714 6.70625 8.10933 6.91563 8.10933 7.16406C8.10933 7.43281 8.04839 7.65469 7.92651 7.83437C7.80308 8.01406 7.62495 8.15937 7.38276 8.27344C7.71245 8.36719 7.95464 8.53438 8.11401 8.76875C8.27651 9.00625 8.3562 9.29063 8.3562 9.625C8.3562 9.89687 8.30464 10.1297 8.19995 10.325ZM12.5562 9.5H9.7687C9.7687 9.80312 9.87339 10.0938 10.0312 10.25C10.1906 10.4047 10.4187 10.4828 10.7171 10.4828C10.9328 10.4828 11.1156 10.4281 11.2718 10.3203C11.4265 10.2125 11.5203 10.0984 11.5546 9.97969H12.489C12.339 10.4438 12.1109 10.775 11.8015 10.975C11.4953 11.175 11.1203 11.275 10.6843 11.275C10.3796 11.275 10.1062 11.225 9.86089 11.1297C9.62495 11.0375 9.41245 10.8969 9.23745 10.7156C9.0649 10.5295 8.93153 10.3106 8.84526 10.0719C8.74995 9.80781 8.70308 9.52969 8.7062 9.25C8.7062 8.96094 8.75464 8.69219 8.84839 8.44219C9.02808 7.95625 9.40151 7.56719 9.87808 7.36562C10.1328 7.25937 10.4062 7.20625 10.6828 7.20937C11.0109 7.20937 11.2953 7.27188 11.5421 7.4C11.7798 7.52235 11.9862 7.6977 12.1453 7.9125C12.3031 8.12656 12.414 8.37031 12.4843 8.64531C12.5515 8.91562 12.575 9.2 12.5562 9.5V9.5ZM10.65 8.00625C10.4812 8.00625 10.339 8.03594 10.2296 8.09375C10.1203 8.15156 10.0296 8.22344 9.96089 8.30625C9.89541 8.38621 9.84702 8.47874 9.8187 8.57812C9.7937 8.66094 9.77651 8.74531 9.77026 8.83125H11.4968C11.4718 8.56094 11.3781 8.36094 11.2531 8.22031C11.1218 8.08125 10.9109 8.00625 10.65 8.00625V8.00625Z" fill="#4F4F4F"/>
</svg>
