<svg width="20" height="21" viewBox="0 0 20 21" fill="none" xmlns="http://www.w3.org/2000/svg">
<path d="M15.8333 3.8335H4.16667C3.50363 3.8335 2.86775 4.09689 2.3989 4.56573C1.93006 5.03457 1.66667 5.67045 1.66667 6.3335V14.6668C1.66667 15.3299 1.93006 15.9658 2.3989 16.4346C2.86775 16.9034 3.50363 17.1668 4.16667 17.1668H15.8333C16.4964 17.1668 17.1323 16.9034 17.6011 16.4346C18.0699 15.9658 18.3333 15.3299 18.3333 14.6668V6.3335C18.3333 5.67045 18.0699 5.03457 17.6011 4.56573C17.1323 4.09689 16.4964 3.8335 15.8333 3.8335ZM15.8333 5.50016L10.4167 9.22516C10.29 9.2983 10.1463 9.33681 10 9.33681C9.85372 9.33681 9.71002 9.2983 9.58334 9.22516L4.16667 5.50016H15.8333Z" fill="#FDD500"/>
</svg>
