<svg width="17" height="17" viewBox="0 0 17 17" fill="none" xmlns="http://www.w3.org/2000/svg">
<path fill-rule="evenodd" clip-rule="evenodd" d="M5.37665 1.21063C6.15865 1.17463 6.40798 1.16663 8.39998 1.16663C10.392 1.16663 10.6413 1.17529 11.4227 1.21063C12.204 1.24596 12.7373 1.37063 13.204 1.55129C13.6927 1.73596 14.136 2.02463 14.5027 2.39796C14.876 2.76396 15.164 3.20663 15.348 3.69596C15.5293 4.16263 15.6533 4.69596 15.6893 5.47596C15.7253 6.25929 15.7333 6.50863 15.7333 8.49996C15.7333 10.492 15.7247 10.7413 15.6893 11.5233C15.654 12.3033 15.5293 12.8366 15.348 13.3033C15.164 13.7927 14.8755 14.2361 14.5027 14.6026C14.136 14.976 13.6927 15.264 13.204 15.448C12.7373 15.6293 12.204 15.7533 11.424 15.7893C10.6413 15.8253 10.392 15.8333 8.39998 15.8333C6.40798 15.8333 6.15865 15.8246 5.37665 15.7893C4.59665 15.754 4.06332 15.6293 3.59665 15.448C3.10726 15.2639 2.66386 14.9755 2.29732 14.6026C1.92424 14.2364 1.63553 13.7932 1.45132 13.304C1.27065 12.8373 1.14665 12.304 1.11065 11.524C1.07465 10.7406 1.06665 10.4913 1.06665 8.49996C1.06665 6.50796 1.07532 6.25863 1.11065 5.47729C1.14598 4.69596 1.27065 4.16263 1.45132 3.69596C1.6358 3.20668 1.92473 2.7635 2.29798 2.39729C2.66401 2.02429 3.10697 1.73559 3.59598 1.55129C4.06265 1.37063 4.59598 1.24663 5.37598 1.21063H5.37665ZM11.3633 2.53063C10.59 2.49529 10.358 2.48796 8.39998 2.48796C6.44198 2.48796 6.20998 2.49529 5.43665 2.53063C4.72132 2.56329 4.33332 2.68263 4.07465 2.78329C3.73265 2.91663 3.48798 3.07463 3.23132 3.33129C2.98801 3.56799 2.80077 3.85615 2.68332 4.17463C2.58265 4.43329 2.46332 4.82129 2.43065 5.53663C2.39532 6.30996 2.38798 6.54196 2.38798 8.49996C2.38798 10.458 2.39532 10.69 2.43065 11.4633C2.46332 12.1786 2.58265 12.5666 2.68332 12.8253C2.80065 13.1433 2.98798 13.432 3.23132 13.6686C3.46798 13.912 3.75665 14.0993 4.07465 14.2166C4.33332 14.3173 4.72132 14.4366 5.43665 14.4693C6.20998 14.5046 6.44132 14.512 8.39998 14.512C10.3587 14.512 10.59 14.5046 11.3633 14.4693C12.0787 14.4366 12.4667 14.3173 12.7253 14.2166C13.0673 14.0833 13.312 13.9253 13.5687 13.6686C13.812 13.432 13.9993 13.1433 14.1167 12.8253C14.2173 12.5666 14.3367 12.1786 14.3693 11.4633C14.4047 10.69 14.412 10.458 14.412 8.49996C14.412 6.54196 14.4047 6.30996 14.3693 5.53663C14.3367 4.82129 14.2173 4.43329 14.1167 4.17463C13.9833 3.83263 13.8253 3.58796 13.5687 3.33129C13.3319 3.08801 13.0438 2.90077 12.7253 2.78329C12.4667 2.68263 12.0787 2.56329 11.3633 2.53063V2.53063ZM7.46332 10.7606C7.98642 10.9784 8.5689 11.0078 9.11127 10.8438C9.65364 10.6798 10.1222 10.3326 10.4371 9.86145C10.7519 9.39034 10.8934 8.82454 10.8373 8.2607C10.7813 7.69685 10.5313 7.16994 10.13 6.76996C9.87414 6.51428 9.56479 6.3185 9.22421 6.19672C8.88362 6.07495 8.52027 6.0302 8.16031 6.0657C7.80036 6.10121 7.45275 6.21608 7.14252 6.40205C6.83229 6.58801 6.56715 6.84046 6.36619 7.14119C6.16523 7.44193 6.03344 7.78348 5.98033 8.14127C5.92721 8.49905 5.95409 8.86415 6.05901 9.2103C6.16394 9.55645 6.34431 9.87503 6.58713 10.1431C6.82996 10.4112 7.1292 10.6221 7.46332 10.7606ZM5.73465 5.83463C6.08467 5.48461 6.5002 5.20696 6.95752 5.01753C7.41484 4.82811 7.90499 4.73061 8.39998 4.73061C8.89498 4.73061 9.38513 4.82811 9.84245 5.01753C10.2998 5.20696 10.7153 5.48461 11.0653 5.83463C11.4153 6.18464 11.693 6.60017 11.8824 7.05749C12.0718 7.51481 12.1693 8.00496 12.1693 8.49996C12.1693 8.99496 12.0718 9.48511 11.8824 9.94243C11.693 10.3997 11.4153 10.8153 11.0653 11.1653C10.3584 11.8722 9.39968 12.2693 8.39998 12.2693C7.40029 12.2693 6.44154 11.8722 5.73465 11.1653C5.02776 10.4584 4.63063 9.49965 4.63063 8.49996C4.63063 7.50026 5.02776 6.54152 5.73465 5.83463V5.83463ZM13.0053 5.29196C13.0921 5.21014 13.1615 5.11175 13.2095 5.00261C13.2575 4.89347 13.2832 4.7758 13.2849 4.65658C13.2867 4.53735 13.2645 4.41899 13.2196 4.3085C13.1748 4.19801 13.1083 4.09763 13.024 4.01332C12.9396 3.929 12.8393 3.86246 12.7288 3.81764C12.6183 3.77281 12.4999 3.75061 12.3807 3.75235C12.2615 3.75409 12.1438 3.77973 12.0347 3.82776C11.9255 3.87579 11.8271 3.94522 11.7453 4.03196C11.5862 4.20065 11.4991 4.42471 11.5025 4.65658C11.5058 4.88845 11.5994 5.10988 11.7634 5.27385C11.9274 5.43783 12.1488 5.53144 12.3807 5.53483C12.6126 5.53821 12.8366 5.45109 13.0053 5.29196V5.29196Z" fill="#4F4F4F"/>
</svg>
