<svg width="20" height="21" viewBox="0 0 20 21" fill="none" xmlns="http://www.w3.org/2000/svg">
<path d="M10 1.75C8.1773 1.75215 6.42987 2.47717 5.14102 3.76602C3.85218 5.05486 3.12716 6.8023 3.12501 8.625C3.12282 10.1145 3.60937 11.5636 4.51001 12.75C4.51001 12.75 4.69751 12.9969 4.72813 13.0325L10 19.25L15.2744 13.0294C15.3019 12.9963 15.49 12.75 15.49 12.75L15.4906 12.7481C16.3908 11.5623 16.8771 10.1138 16.875 8.625C16.8729 6.8023 16.1478 5.05486 14.859 3.76602C13.5701 2.47717 11.8227 1.75215 10 1.75ZM10 11.125C9.50555 11.125 9.0222 10.9784 8.61108 10.7037C8.19996 10.429 7.87953 10.0385 7.69031 9.58171C7.50109 9.12489 7.45158 8.62223 7.54804 8.13727C7.64451 7.65232 7.88261 7.20686 8.23224 6.85723C8.58187 6.5076 9.02733 6.2695 9.51228 6.17304C9.99723 6.07657 10.4999 6.12608 10.9567 6.3153C11.4135 6.50452 11.804 6.82495 12.0787 7.23607C12.3534 7.6472 12.5 8.13055 12.5 8.625C12.4992 9.28779 12.2355 9.92319 11.7669 10.3919C11.2982 10.8605 10.6628 11.1242 10 11.125Z" fill="#FDD500"/>
</svg>
