<?xml version="1.0" encoding="UTF-8"?>
<svg xmlns="http://www.w3.org/2000/svg" id="Icons" viewBox="0 0 74 74" width="512" height="512"><path d="M27.1,72h-.014a1,1,0,0,1-.912-.622l-3.221-7.89-7.742,3.533a1,1,0,0,1-1.33-1.314L22.31,46.636a1,1,0,0,1,1.83.809L16.776,64.109l6.3-2.873a1,1,0,0,1,1.341.532l2.725,6.673,7.9-17.915a1,1,0,0,1,1.83.807L28.018,71.4A1,1,0,0,1,27.1,72Z"/><path d="M31.1,53.436a3.654,3.654,0,0,1-.957-.123c-1.493-.4-2.491-1.7-3.372-2.85a7.381,7.381,0,0,0-1.8-1.9,7.511,7.511,0,0,0-2.6-.634c-1.49-.2-3.031-.406-4.1-1.477s-1.279-2.614-1.478-4.105a7.556,7.556,0,0,0-.634-2.595,7.431,7.431,0,0,0-1.9-1.8c-1.15-.881-2.452-1.879-2.851-3.371-.383-1.433.2-2.855.768-4.229a7.657,7.657,0,0,0,.764-2.629,7.658,7.658,0,0,0-.764-2.628c-.566-1.374-1.151-2.8-.768-4.229.4-1.492,1.7-2.49,2.851-3.371a7.416,7.416,0,0,0,1.9-1.806,7.522,7.522,0,0,0,.633-2.594c.2-1.491.4-3.032,1.478-4.1s2.613-1.278,4.1-1.478a7.511,7.511,0,0,0,2.6-.634,7.408,7.408,0,0,0,1.8-1.9c.88-1.15,1.879-2.452,3.371-2.851,1.433-.387,2.855.2,4.229.768A7.659,7.659,0,0,0,37,3.653a7.659,7.659,0,0,0,2.629-.763c1.374-.566,2.8-1.152,4.228-.769,1.493.4,2.491,1.7,3.372,2.851a7.4,7.4,0,0,0,1.8,1.9,7.489,7.489,0,0,0,2.595.633c1.49.2,3.031.406,4.1,1.478s1.279,2.614,1.478,4.1a7.55,7.55,0,0,0,.634,2.6,7.4,7.4,0,0,0,1.9,1.8c1.15.881,2.452,1.88,2.851,3.371.383,1.434-.2,2.855-.768,4.23a7.658,7.658,0,0,0-.764,2.628,7.646,7.646,0,0,0,.764,2.628c.566,1.375,1.151,2.8.768,4.23-.4,1.491-1.7,2.49-2.851,3.371a7.4,7.4,0,0,0-1.9,1.8,7.534,7.534,0,0,0-.633,2.594c-.2,1.491-.405,3.033-1.478,4.105s-2.613,1.278-4.1,1.477a7.509,7.509,0,0,0-2.595.635,7.408,7.408,0,0,0-1.8,1.9c-.88,1.149-1.879,2.452-3.371,2.851-1.435.385-2.855-.2-4.229-.768A7.637,7.637,0,0,0,37,51.782a7.637,7.637,0,0,0-2.629.763A8.88,8.88,0,0,1,31.1,53.436ZM31.1,4a1.708,1.708,0,0,0-.441.054c-.835.223-1.547,1.152-2.3,2.135A8.85,8.85,0,0,1,25.968,8.6a8.969,8.969,0,0,1-3.332.885,5.413,5.413,0,0,0-2.955.91,5.4,5.4,0,0,0-.91,2.955,8.977,8.977,0,0,1-.884,3.331,8.858,8.858,0,0,1-2.416,2.391c-.983.754-1.911,1.466-2.135,2.3a5.366,5.366,0,0,0,.685,2.951,9.111,9.111,0,0,1,.915,3.39,9.1,9.1,0,0,1-.915,3.39,5.362,5.362,0,0,0-.685,2.952c.224.835,1.152,1.546,2.135,2.3a8.858,8.858,0,0,1,2.416,2.391,8.958,8.958,0,0,1,.884,3.331,5.419,5.419,0,0,0,.911,2.956,5.41,5.41,0,0,0,2.955.909,8.964,8.964,0,0,1,3.331.885,8.812,8.812,0,0,1,2.39,2.416c.754.982,1.466,1.911,2.3,2.134a5.386,5.386,0,0,0,2.95-.685A9.115,9.115,0,0,1,37,49.782a9.115,9.115,0,0,1,3.391.914,5.345,5.345,0,0,0,2.951.685c.835-.223,1.547-1.152,2.3-2.135a8.836,8.836,0,0,1,2.39-2.415,8.97,8.97,0,0,1,3.332-.886,5.4,5.4,0,0,0,2.955-.909,5.407,5.407,0,0,0,.91-2.955,8.972,8.972,0,0,1,.884-3.331,8.847,8.847,0,0,1,2.416-2.392c.983-.754,1.911-1.465,2.135-2.3a5.366,5.366,0,0,0-.685-2.951,9.1,9.1,0,0,1-.915-3.39,9.111,9.111,0,0,1,.915-3.39,5.357,5.357,0,0,0,.685-2.951c-.224-.835-1.152-1.546-2.135-2.3a8.858,8.858,0,0,1-2.416-2.391,8.963,8.963,0,0,1-.884-3.331,5.416,5.416,0,0,0-.911-2.956,5.4,5.4,0,0,0-2.955-.909A8.983,8.983,0,0,1,48.032,8.6a8.84,8.84,0,0,1-2.39-2.416c-.754-.983-1.466-1.911-2.3-2.135a5.369,5.369,0,0,0-2.95.686A9.134,9.134,0,0,1,37,5.653a9.134,9.134,0,0,1-3.391-.914A7.471,7.471,0,0,0,31.1,4Z"/><path d="M37,44.784A17.067,17.067,0,1,1,54.066,27.717,17.086,17.086,0,0,1,37,44.784Zm0-32.133A15.067,15.067,0,1,0,52.066,27.717,15.083,15.083,0,0,0,37,12.651Z"/><path d="M46.9,72a1,1,0,0,1-.915-.6L37.129,51.333a1,1,0,0,1,1.83-.807l7.9,17.915,2.725-6.673a1,1,0,0,1,1.341-.532l6.3,2.873L49.86,47.445a1,1,0,0,1,1.83-.809l8.426,19.071a1,1,0,0,1-1.33,1.314l-7.742-3.533-3.221,7.89a1,1,0,0,1-.912.622Z"/><path d="M42.47,36.625a.994.994,0,0,1-.465-.115L37,33.879,32,36.51a1,1,0,0,1-1.45-1.054l.956-5.572-4.049-3.947a1,1,0,0,1,.555-1.706l5.595-.812,2.5-5.07a1.041,1.041,0,0,1,1.792,0l2.5,5.07,5.595.812a1,1,0,0,1,.555,1.706L42.5,29.884l.956,5.572a1,1,0,0,1-.985,1.169ZM37,31.75a1,1,0,0,1,.465.114L41.142,33.8l-.7-4.093a1,1,0,0,1,.288-.885l2.973-2.9-4.109-.6a1,1,0,0,1-.753-.548L37,21.051l-1.838,3.724a1,1,0,0,1-.753.548l-4.109.6,2.973,2.9a1,1,0,0,1,.288.885l-.7,4.093,3.677-1.933A1,1,0,0,1,37,31.75Z"/></svg>
