<svg width="80" height="81" viewBox="0 0 80 81" fill="none" xmlns="http://www.w3.org/2000/svg">
<g clip-path="url(#clip0)">
<path d="M75.7787 32.9786C78.3373 31.0292 80 27.9586 80 24.4999C80 18.6186 75.2147 13.8333 69.3333 13.8333C63.452 13.8333 58.6667 18.6186 58.6667 24.4999C58.6667 27.6866 60.0787 30.5439 62.3013 32.4999H55.2187L46.276 23.5573C45.7547 23.0359 44.912 23.0359 44.3907 23.5573L39.0573 28.8906C38.536 29.4119 38.536 30.2546 39.0573 30.7759L51.0573 42.7759C51.3067 43.0266 51.6453 43.1666 52 43.1666H62.6667V52.4999H56H39.824L46.4427 42.5732L44.224 41.0946L36.62 52.4999H33.3333V45.8333C33.3333 45.0959 32.7373 44.4999 32 44.4999H21.3333V39.1666C21.3333 36.3559 19.5787 33.9573 17.112 32.9786C19.6707 31.0292 21.3333 27.9586 21.3333 24.4999C21.3333 18.6186 16.548 13.8333 10.6667 13.8333C4.78533 13.8333 0 18.6186 0 24.4999C0 27.9586 1.66267 31.0292 4.22133 32.9786C1.75467 33.9573 0 36.3559 0 39.1666V57.8332C0 61.5093 2.99067 64.4999 6.66667 64.4999V80.4999H9.33333V64.4999H18.6667V79.1666C18.6667 79.9039 19.2627 80.4999 20 80.4999H29.3333C30.0707 80.4999 30.6667 79.9039 30.6667 79.1666V59.1666C30.6667 57.6666 30.1693 56.2812 29.3307 55.1666H30.6667H32H38.6667V77.8332H33.3333V80.4999H46.6667V77.8332H41.3333V55.1666H50.7013C49.8547 56.2839 49.3333 57.6599 49.3333 59.1666V79.1666C49.3333 79.9039 49.9293 80.4999 50.6667 80.4999H60C60.7373 80.4999 61.3333 79.9039 61.3333 79.1666V64.4999H70.6667V80.4999H73.3333V64.4999C77.0093 64.4999 80 61.5093 80 57.8332V39.1666C80 36.3559 78.2453 33.9573 75.7787 32.9786ZM2.66667 24.4999C2.66667 20.0879 6.25467 16.4999 10.6667 16.4999C15.0787 16.4999 18.6667 20.0879 18.6667 24.4999C18.6667 28.9119 15.0787 32.4999 10.6667 32.4999C6.25467 32.4999 2.66667 28.9119 2.66667 24.4999ZM30.6667 52.4999H13.3333V41.8333H10.6667V53.8332C10.6667 54.5706 11.2627 55.1666 12 55.1666H24C26.2053 55.1666 28 56.9613 28 59.1666V77.8332H21.3333V63.1666C21.3333 62.4292 20.7373 61.8332 20 61.8332H6.66667C4.46133 61.8332 2.66667 60.0386 2.66667 57.8332V39.1666C2.66667 36.9613 4.46133 35.1666 6.66667 35.1666H14.6667C16.872 35.1666 18.6667 36.9613 18.6667 39.1666V45.8333C18.6667 46.5706 19.2627 47.1666 20 47.1666H30.6667V52.4999ZM61.3333 24.4999C61.3333 20.0879 64.9213 16.4999 69.3333 16.4999C73.7453 16.4999 77.3333 20.0879 77.3333 24.4999C77.3333 28.9119 73.7453 32.4999 69.3333 32.4999C64.9213 32.4999 61.3333 28.9119 61.3333 24.4999ZM77.3333 57.8332C77.3333 60.0386 75.5387 61.8332 73.3333 61.8332H60C59.2627 61.8332 58.6667 62.4292 58.6667 63.1666V77.8332H52V59.1666C52 56.9613 53.7947 55.1666 56 55.1666H64C64.7373 55.1666 65.3333 54.5706 65.3333 53.8332V41.8333C65.3333 41.0959 64.7373 40.4999 64 40.4999H52.552L41.8853 29.8333L45.3333 26.3853L53.724 34.7759C53.9733 35.0266 54.312 35.1666 54.6667 35.1666H73.3333C75.5387 35.1666 77.3333 36.9613 77.3333 39.1666V57.8332Z" fill="#4F4F4F"/>
<path d="M53.3333 0.5H26.6666C24.4613 0.5 22.6666 2.29467 22.6666 4.5V15.1667C22.6666 17.372 24.4613 19.1667 26.6666 19.1667H28V27.1667C28 27.7053 28.324 28.1933 28.8226 28.3987C28.988 28.468 29.1613 28.5 29.3333 28.5C29.68 28.5 30.0213 28.364 30.276 28.1093L39.2186 19.1667H53.3333C55.5386 19.1667 57.3333 17.372 57.3333 15.1667V4.5C57.3333 2.29467 55.5386 0.5 53.3333 0.5ZM54.6666 15.1667C54.6666 15.9027 54.0693 16.5 53.3333 16.5H38.6666C38.312 16.5 37.9733 16.64 37.724 16.8907L30.6666 23.948V17.8333C30.6666 17.096 30.0706 16.5 29.3333 16.5H26.6666C25.9306 16.5 25.3333 15.9027 25.3333 15.1667V4.5C25.3333 3.764 25.9306 3.16667 26.6666 3.16667H53.3333C54.0693 3.16667 54.6666 3.764 54.6666 4.5V15.1667Z" fill="#4F4F4F"/>
<path d="M36 5.83325H28V8.49992H36V5.83325Z" fill="#4F4F4F"/>
<path d="M52 11.1667H28V13.8334H52V11.1667Z" fill="#4F4F4F"/>
<path d="M52 5.83325H38.6666V8.49992H52V5.83325Z" fill="#4F4F4F"/>
</g>
<defs>
<clipPath id="clip0">
<rect width="80" height="80" fill="white" transform="translate(0 0.5)"/>
</clipPath>
</defs>
</svg>
