<svg width="80" height="81" viewBox="0 0 80 81" fill="none" xmlns="http://www.w3.org/2000/svg">
<g clip-path="url(#clip0)">
<path d="M76 72.5C75.7694 72.5 75.54 72.52 75.3147 72.56C74.3947 70.9027 72.6441 69.8333 70.6667 69.8333C68.6894 69.8333 66.9388 70.9027 66.0188 72.56C65.7935 72.52 65.5641 72.5 65.3335 72.5C63.1281 72.5 61.3335 74.2947 61.3335 76.5C61.3335 76.9694 61.4294 77.4133 61.5802 77.8333H56V69.8333H62.6667C63.4027 69.8333 64 69.236 64 68.5001V15.1668C64 14.4308 63.4027 13.8335 62.6667 13.8335H22.6667C21.9308 13.8335 21.3335 14.4308 21.3335 15.1668V79.1668C21.3335 79.9027 21.9308 80.5 22.6667 80.5H76C78.2053 80.5 80 78.7054 80 76.5C80 74.2947 78.2053 72.5 76 72.5ZM56 16.5001H61.3333V24.5001H56V16.5001ZM56 27.1668H61.3333V35.1668H56V27.1668ZM56 37.8333H61.3333V45.8333H56V37.8333ZM56 48.5001H61.3333V56.5H56V48.5001ZM56 59.1668H61.3333V67.1668H56V59.1668ZM29.3333 77.8333H24V69.8333H29.3333V77.8333ZM29.3333 67.1668H24V59.1668H29.3333V67.1668ZM29.3333 56.5H24V48.5001H29.3333V56.5ZM29.3333 45.8333H24V37.8333H29.3333V45.8333ZM29.3333 35.1668H24V27.1668H29.3333V35.1668ZM29.3333 24.5001H24V16.5001H29.3333V24.5001ZM37.3333 77.8333H32V69.8333H37.3333V77.8333ZM37.3333 67.1668H32V59.1668H37.3333V67.1668ZM37.3333 56.5H32V48.5001H37.3333V56.5ZM37.3333 45.8333H32V37.8333H37.3333V45.8333ZM37.3333 35.1668H32V27.1668H37.3333V35.1668ZM37.3333 24.5001H32V16.5001H37.3333V24.5001ZM45.3333 77.8333H40V69.8333H45.3333V77.8333ZM45.3333 67.1668H40V59.1668H45.3333V67.1668ZM45.3333 56.5H40V48.5001H45.3333V56.5ZM45.3333 45.8333H40V37.8333H45.3333V45.8333ZM45.3333 35.1668H40V27.1668H45.3333V35.1668ZM45.3333 24.5001H40V16.5001H45.3333V24.5001ZM53.3333 77.8333H48V69.8333H53.3333V77.8333ZM53.3333 67.1668H48V59.1668H53.3333V67.1668ZM53.3333 56.5H48V48.5001H53.3333V56.5ZM53.3333 45.8333H48V37.8333H53.3333V45.8333ZM53.3333 35.1668H48V27.1668H53.3333V35.1668ZM53.3333 24.5001H48V16.5001H53.3333V24.5001ZM76 77.8333H65.3333C64.5986 77.8333 64 77.2347 64 76.5C64 75.7654 64.5986 75.1668 65.3333 75.1668C65.5892 75.1668 65.8319 75.24 66.056 75.3841C66.4213 75.6188 66.8774 75.6615 67.28 75.4988C67.6827 75.3361 67.98 74.9868 68.0774 74.5641C68.3588 73.3494 69.4241 72.5 70.6667 72.5C71.9094 72.5 72.9747 73.3494 73.2561 74.5641C73.3535 74.9868 73.6508 75.3361 74.0535 75.4988C74.4561 75.6615 74.912 75.6188 75.2775 75.3841C76.1442 74.8241 77.3349 75.5094 77.3335 76.5C77.3333 77.2347 76.7347 77.8333 76 77.8333Z" fill="#4F4F4F"/>
<path d="M29.3333 9.83328V5.83328H38.6666C39.4025 5.83328 39.9998 5.23594 39.9998 4.5V3.16672H45.3331V4.5C45.3331 5.23594 45.9305 5.83328 46.6664 5.83328H56V8.5H33.3333C32.5973 8.5 32 9.09734 32 9.83328C32 10.5692 32.5973 11.1666 33.3333 11.1666H66.6666V66.4719C66.6666 67.2078 67.2639 67.8052 67.9998 67.8052C68.7358 67.8052 69.3331 67.2078 69.3331 66.4719V9.83328C69.3331 9.09734 68.7358 8.5 67.9998 8.5H58.6666V4.5C58.6666 3.76406 58.0692 3.16672 57.3333 3.16672H48V1.83328C48 1.09734 47.4027 0.5 46.6667 0.5H38.6667C37.9308 0.5 37.3334 1.09734 37.3334 1.83328V3.16656H28C27.2641 3.16656 26.6667 3.76391 26.6667 4.49984V8.49984H17.3334C16.5975 8.49984 16.0002 9.09719 16.0002 9.83313V77.8331H8V72.3652C11.0386 71.7452 13.3333 69.0531 13.3333 65.8331C13.3333 65.6598 13.2573 48.4998 6.66656 48.4998C0.0759375 48.5 0 65.66 0 65.8333C0 69.0533 2.29469 71.7453 5.33328 72.3653V77.8333H1.33328C0.597344 77.8333 0 78.4306 0 79.1666C0 79.9025 0.597344 80.5 1.33328 80.5H17.3333C18.0692 80.5 18.6666 79.9027 18.6666 79.1667V11.1667H28C28.7359 11.1667 29.3333 10.5694 29.3333 9.83328ZM2.66672 65.8333C2.66672 59.1906 4.45078 51.1666 6.66672 51.1666C8.88266 51.1666 10.6667 59.1906 10.6667 65.8333C10.6667 68.0386 8.87203 69.8333 6.66672 69.8333C4.46141 69.8333 2.66672 68.0386 2.66672 65.8333Z" fill="#4F4F4F"/>
</g>
<defs>
<clipPath id="clip0">
<rect width="80" height="80" fill="white" transform="translate(0 0.5)"/>
</clipPath>
</defs>
</svg>
