<svg width="17" height="17" viewBox="0 0 17 17" fill="none" xmlns="http://www.w3.org/2000/svg">
<path d="M0.599976 8.5C0.599976 11.9153 2.74064 14.8313 5.75331 15.9787C5.67998 15.354 5.60198 14.324 5.76998 13.6013C5.91464 12.98 6.70398 9.64267 6.70398 9.64267C6.70398 9.64267 6.46598 9.166 6.46598 8.46C6.46598 7.35333 7.10731 6.52667 7.90664 6.52667C8.58664 6.52667 8.91464 7.03667 8.91464 7.648C8.91464 8.33133 8.47931 9.35267 8.25464 10.3C8.06731 11.0927 8.65264 11.7393 9.43398 11.7393C10.8493 11.7393 11.938 10.2467 11.938 8.092C11.938 6.18467 10.5673 4.852 8.61064 4.852C6.34531 4.852 5.01531 6.55133 5.01531 8.308C5.01531 8.99267 5.27864 9.726 5.60798 10.1253C5.63605 10.1555 5.65589 10.1924 5.66558 10.2324C5.67527 10.2725 5.67449 10.3143 5.66331 10.354C5.60264 10.606 5.46798 11.1467 5.44198 11.2573C5.40664 11.4027 5.32664 11.434 5.17531 11.3633C4.18064 10.9007 3.55931 9.44667 3.55931 8.27867C3.55931 5.766 5.38398 3.45933 8.82064 3.45933C11.5833 3.45933 13.7306 5.428 13.7306 8.05867C13.7306 10.8033 12.0006 13.0127 9.59798 13.0127C8.79064 13.0127 8.03264 12.5927 7.77264 12.0973C7.77264 12.0973 7.37331 13.6187 7.27664 13.9907C7.08864 14.7133 6.56731 15.628 6.24398 16.1473C6.98931 16.3767 7.77998 16.5 8.59998 16.5C13.018 16.5 16.6 12.918 16.6 8.5C16.6 4.082 13.018 0.5 8.59998 0.5C4.18198 0.5 0.599976 4.082 0.599976 8.5Z" fill="#4F4F4F"/>
</svg>
