<svg width="50" height="50" viewBox="0 0 50 50" fill="none" xmlns="http://www.w3.org/2000/svg">
<path d="M20.8334 37.5001C24.5312 37.4993 28.1225 36.2614 31.0354 33.9834L40.1938 43.1417L43.1396 40.1959L33.9813 31.0376C36.2604 28.1244 37.4991 24.5322 37.5 20.8334C37.5 11.6438 30.0229 4.16675 20.8334 4.16675C11.6438 4.16675 4.16669 11.6438 4.16669 20.8334C4.16669 30.023 11.6438 37.5001 20.8334 37.5001ZM20.8334 8.33341C27.7271 8.33341 33.3334 13.9397 33.3334 20.8334C33.3334 27.7272 27.7271 33.3334 20.8334 33.3334C13.9396 33.3334 8.33335 27.7272 8.33335 20.8334C8.33335 13.9397 13.9396 8.33341 20.8334 8.33341Z" fill="#00CEB5"/>
</svg>
