<svg width="20" height="21" viewBox="0 0 20 21" fill="none" xmlns="http://www.w3.org/2000/svg">
<g clip-path="url(#clip0)">
<path fill-rule="evenodd" clip-rule="evenodd" d="M2.35637 1.13869C2.57508 0.9203 2.83772 0.750887 3.12686 0.641677C3.41601 0.532467 3.72506 0.485953 4.03354 0.505218C4.34202 0.524483 4.64288 0.609088 4.91619 0.753424C5.1895 0.897761 5.42902 1.09853 5.61887 1.34244L7.86262 4.22494C8.27387 4.75369 8.41887 5.44244 8.25637 6.09244L7.57262 8.82994C7.53726 8.97173 7.53917 9.12024 7.57816 9.26108C7.61715 9.40191 7.69188 9.53027 7.79512 9.63369L10.8664 12.7049C10.9699 12.8084 11.0985 12.8832 11.2396 12.9222C11.3806 12.9612 11.5294 12.963 11.6714 12.9274L14.4076 12.2437C14.7284 12.1635 15.0632 12.1573 15.3867 12.2255C15.7102 12.2937 16.014 12.4346 16.2751 12.6374L19.1576 14.8799C20.1939 15.6862 20.2889 17.2174 19.3614 18.1437L18.0689 19.4362C17.1439 20.3612 15.7614 20.7674 14.4726 20.3137C11.1741 19.1531 8.17921 17.2647 5.71012 14.7887C3.23423 12.32 1.34588 9.32551 0.185116 6.02744C-0.267384 4.73994 0.138866 3.35619 1.06387 2.43119L2.35637 1.13869Z" fill="#FDD500"/>
</g>
<defs>
<clipPath id="clip0">
<rect width="20" height="20" fill="white" transform="translate(0 0.5)"/>
</clipPath>
</defs>
</svg>
