<svg width="17" height="17" viewBox="0 0 17 17" fill="none" xmlns="http://www.w3.org/2000/svg">
<path d="M16.562 3.79128C16.0053 4.03795 15.4073 4.20462 14.7787 4.27995C15.4273 3.89181 15.9126 3.28093 16.144 2.56128C15.5346 2.92328 14.8676 3.17808 14.172 3.31462C13.7043 2.81519 13.0847 2.48417 12.4096 2.37293C11.7344 2.2617 11.0414 2.37648 10.4382 2.69945C9.83493 3.02243 9.3552 3.53552 9.07345 4.15909C8.7917 4.78265 8.72371 5.48178 8.88002 6.14795C7.64514 6.08595 6.4371 5.76498 5.3343 5.20589C4.2315 4.64679 3.25858 3.86206 2.47868 2.90262C2.21202 3.36262 2.05868 3.89595 2.05868 4.46395C2.05839 4.97528 2.1843 5.47878 2.42527 5.92977C2.66623 6.38076 3.01479 6.76531 3.44002 7.04928C2.94687 7.03359 2.4646 6.90034 2.03335 6.66062V6.70062C2.0333 7.41778 2.28137 8.11287 2.73547 8.66795C3.18957 9.22303 3.82173 9.6039 4.52468 9.74595C4.0672 9.86976 3.58757 9.888 3.12202 9.79928C3.32035 10.4164 3.70668 10.956 4.22693 11.3426C4.74718 11.7292 5.37529 11.9434 6.02335 11.9553C4.92324 12.8189 3.56461 13.2873 2.16602 13.2853C1.91827 13.2853 1.67073 13.2709 1.42468 13.2419C2.84433 14.1547 4.49691 14.6392 6.18468 14.6373C11.898 14.6373 15.0213 9.90528 15.0213 5.80128C15.0213 5.66795 15.018 5.53328 15.012 5.39995C15.6195 4.9606 16.144 4.41655 16.5607 3.79328L16.562 3.79128V3.79128Z" fill="#4F4F4F"/>
</svg>
