<svg id="Layer_2" height="512" viewBox="0 0 512 512" width="512" xmlns="http://www.w3.org/2000/svg" data-name="Layer 2"><path d="m504 272h-96v-32h56a8 8 0 0 0 8-8v-128a8 8 0 0 0 -8-8h-160a8 8 0 0 0 -8 8v128a8 8 0 0 0 8 8h56v32h-80v-40a24.027 24.027 0 0 0 -24-24h-96a24.027 24.027 0 0 0 -24 24v40h-16v-64a8 8 0 0 0 -8-8h-80a8 8 0 0 0 -8 8v64h-16a8 8 0 0 0 -8 8v40a8 8 0 0 0 8 8h61.645l-45.386 173.98 15.482 4.039 39.552-151.614 32.89 151.295 15.635-3.4-37.892-174.3h46.074v16a24.027 24.027 0 0 0 24 24h40v8h-56a8 8 0 0 0 -8 8v24a8 8 0 0 0 8 8h56v56h-48a8 8 0 0 0 -8 8v32h16v-24h96v24h16v-32a8 8 0 0 0 -8-8h-48v-56h56a8 8 0 0 0 8-8v-24a8 8 0 0 0 -8-8h-56v-8h40a24.027 24.027 0 0 0 24-24v-16h124.645l-45.386 173.98 15.482 4.039 39.552-151.614 32.89 151.295 15.635-3.4-37.892-174.3h79.074a8 8 0 0 0 8-8v-40a8 8 0 0 0 -8-8zm-240 128h-112v-8h112zm192-288v80h-144v-80zm-144 96h144v16h-144zm64 32h16v32h-16zm-272-24v16h-64v-16zm-64 32h64v24h-64zm-24 64v-24h120v24zm248 32a8.009 8.009 0 0 1 -8 8h-96a8.009 8.009 0 0 1 -8-8v-112a8.009 8.009 0 0 1 8-8h96a8.009 8.009 0 0 1 8 8zm232-32h-216v-24h216z"/><path d="m108 168a84 84 0 1 0 -84-84 84.1 84.1 0 0 0 84 84zm0-152a68 68 0 1 1 -68 68 68.077 68.077 0 0 1 68-68z"/><path d="m108 92h44v-16h-40.687l-25.656-25.657-11.314 11.314 28 28a8 8 0 0 0 5.657 2.343z"/></svg>