<svg width="80" height="81" viewBox="0 0 80 81" fill="none" xmlns="http://www.w3.org/2000/svg">
<g clip-path="url(#clip0)">
<path d="M14.4602 29.4203C22.4334 29.4203 28.9203 22.9334 28.9203 14.9602C28.9203 6.98687 22.4334 0.5 14.4602 0.5C6.48687 0.5 0 6.98687 0 14.9602C0 22.9334 6.48687 29.4203 14.4602 29.4203ZM14.4602 3.625C20.7103 3.625 25.7953 8.71 25.7953 14.9602C25.7953 21.2103 20.7103 26.2953 14.4602 26.2953C8.21 26.2953 3.125 21.2103 3.125 14.9602C3.125 8.71 8.21 3.625 14.4602 3.625Z" fill="white"/>
<path d="M15.7033 18.3947C16.0083 18.6986 16.4074 18.8505 16.8064 18.8505C17.2071 18.8505 17.608 18.6973 17.9132 18.3911C18.5222 17.7798 18.5207 16.7905 17.9096 16.1813L16.0333 14.3113V7.375C16.0333 6.51219 15.3336 5.8125 14.4708 5.8125C13.608 5.8125 12.9083 6.51219 12.9083 7.375V14.9602C12.9083 15.3755 13.0738 15.7738 13.3677 16.0669L15.7033 18.3947Z" fill="white"/>
<path d="M78.4375 52.3751H68.8208C67.4989 50.4948 65.5127 49.1629 63.2472 48.6676L56.3778 47.1656C59.1889 45.2696 61.0414 42.0559 61.0414 38.4174V34.6023V32.8371V32.4399C61.0414 26.6256 56.3111 21.8953 50.4967 21.8953C44.6823 21.8953 39.952 26.6256 39.952 32.4399V32.8371V34.6023V38.4174C39.952 42.0512 41.7997 45.2617 44.6048 47.1585L37.7398 48.6646C37.4466 48.729 37.1583 48.8079 36.875 48.8993V35.9689C36.875 35.106 36.1753 34.4064 35.3125 34.4064H24.6875C23.8247 34.4064 23.125 35.106 23.125 35.9689C23.125 36.8317 23.8247 37.5314 24.6875 37.5314H33.75V59.4064H23.125V51.5939C23.125 49.0092 21.0222 46.9064 18.4375 46.9064C15.8528 46.9064 13.75 49.0092 13.75 51.5939V59.4064H3.125V37.5314H12.1875C13.0503 37.5314 13.75 36.8317 13.75 35.9689C13.75 35.106 13.0503 34.4064 12.1875 34.4064H1.5625C0.699688 34.4064 0 35.106 0 35.9689V60.9689C0 61.8317 0.699688 62.5313 1.5625 62.5313H13.75V65.5001H13.5938C10.9228 65.5001 8.75 67.6729 8.75 70.3438V71.1251H1.5625C0.699688 71.1251 0 71.8248 0 72.6876V78.9376C0 79.8004 0.699688 80.5001 1.5625 80.5001H78.4375C79.3003 80.5001 80 79.8004 80 78.9376V72.6876V66.4376V60.1876V53.9376C80 53.0748 79.3003 52.3751 78.4375 52.3751ZM68.9342 71.1251H60V68.0001H76.875V71.1251H68.9342ZM76.875 64.8751H60V61.7501H76.875V64.8751ZM76.875 58.6251H60V55.5001H67.9491C67.9538 55.5001 67.9584 55.501 67.963 55.501C67.9678 55.501 67.9728 55.5001 67.9777 55.5001H76.875V58.6251ZM43.0769 32.4401C43.0769 28.3489 46.4055 25.0204 50.4966 25.0204C54.3923 25.0204 57.5964 28.0382 57.8937 31.859L54.2616 29.7251C53.6036 29.3384 52.7627 29.4839 52.2725 30.0687C50.6903 31.957 48.3698 33.0401 45.9062 33.0401H43.077V32.8375V32.4401H43.0769ZM43.0769 36.165H45.9062C48.8477 36.165 51.6406 35.0432 53.7508 33.0493L57.9164 35.4967V38.4176C57.9164 42.5089 54.5878 45.8373 50.4967 45.8373C46.4056 45.8373 43.077 42.5087 43.077 38.4176V36.165H43.0769ZM52.9444 48.6724L50.4733 55.2809L47.9977 48.6606C48.7992 48.8562 49.6356 48.9623 50.4966 48.9623C51.3394 48.9623 52.1583 48.8601 52.9444 48.6724ZM35.3125 62.5313C36.1753 62.5313 36.875 61.8317 36.875 60.9689V52.2778C37.357 52.0237 37.8709 51.8353 38.4094 51.7171L45.2438 50.2178L49.0098 60.2892C49.2381 60.8996 49.8214 61.3043 50.4733 61.3043C51.1252 61.3043 51.7084 60.8996 51.9367 60.289L55.703 50.217L62.5797 51.7206C63.1833 51.8524 63.7561 52.0759 64.2831 52.3749H58.4375C57.5747 52.3749 56.875 53.0746 56.875 53.9374V60.1874V66.4374V71.1249H33.6217V62.5312H35.3125V62.5313ZM30.4967 62.5313V71.1251H28.125V70.3438C28.125 67.6729 25.9522 65.5001 23.2812 65.5001H23.125V62.5313H30.4967ZM16.875 51.5939C16.875 50.7323 17.5759 50.0314 18.4375 50.0314C19.2991 50.0314 20 50.7323 20 51.5939V65.5001H16.875V51.5939ZM11.875 70.3438C11.875 69.3962 12.6461 68.6251 13.5938 68.6251H15.3125H21.5625H23.2812C24.2289 68.6251 25 69.3962 25 70.3438V71.1251H11.875V70.3438ZM76.875 77.3751H3.125V74.2501H76.875V77.3751Z" fill="white"/>
<path d="M17.3328 34.8641C17.0422 35.1547 16.875 35.5578 16.875 35.9688C16.875 36.3797 17.042 36.7828 17.3328 37.0733C17.6234 37.3639 18.0266 37.5312 18.4375 37.5312C18.8484 37.5312 19.2516 37.3641 19.542 37.0733C19.8328 36.7828 20 36.3797 20 35.9688C20 35.5578 19.8328 35.1547 19.542 34.8641C19.2516 34.5734 18.8484 34.4062 18.4375 34.4062C18.0266 34.4062 17.6234 34.5733 17.3328 34.8641Z" fill="white"/>
</g>
<defs>
<clipPath id="clip0">
<rect width="80" height="80" fill="white" transform="translate(0 0.5)"/>
</clipPath>
</defs>
</svg>
